<?xml version="1.0" encoding="UTF-8"?><svg id="b" xmlns="http://www.w3.org/2000/svg" viewBox="0 0 303.732326 68.268555" width="90" height="30"><defs><style>.d{fill-rule:evenodd;}.d,.e{fill:#272727;stroke-width:0px;}</style></defs><g id="c"><path class="e" d="m37.470607,35.623047c0-11.85791,8.162109-20.866699,20.635742-20.866699,10.702148,0,17.554688,6.236816,18.709961,15.091309h-12.088867c-.769531-3.541992-2.925781-5.851562-6.467773-5.851562-5.389648,0-8.083984,4.46582-8.083984,11.626953,0,7.005859,2.694336,11.47168,8.083984,11.47168,3.926758,0,6.314453-2.30957,6.852539-6.775391h12.011719c-.307617,9.084961-7.545898,16.168945-18.709961,16.168945-12.704102,0-20.943359-9.007812-20.943359-20.865234Z"/><path class="e" d="m77.587795,44.246094c0-8.701172,6.929688-11.318359,15.09082-12.396484,7.391602-.923828,10.009766-1.693848,10.009766-4.388672,0-2.541016-1.617188-4.234863-5.389648-4.234863-4.003906,0-6.005859,1.770996-6.390625,5.081543h-11.549805c.307617-7.314453,5.928711-13.55127,17.863281-13.55127,5.928711,0,9.932617,1.078125,12.78125,3.233887,3.387695,2.463867,5.004883,6.313965,5.004883,11.241699v19.864746c0,3.157227.307617,4.927734,1.385742,5.620117v.539062h-12.165039c-.616211-.84668-1.000977-2.386719-1.30957-4.388672h-.15332c-2.310547,3.310547-5.775391,5.390625-11.704102,5.390625-7.853516,0-13.473633-4.235352-13.473633-12.011719Zm25.408203-3.080078v-4.697266c-1.617188.847656-3.926758,1.462891-6.467773,2.080078-4.850586,1.077148-6.852539,2.308594-6.852539,5.3125,0,3.15625,2.30957,4.388672,5.389648,4.388672,4.697266,0,7.930664-2.849609,7.930664-7.083984Z"/><path class="e" d="m116.855373,35.544922c0-12.318848,7.083984-20.865234,17.248047-20.865234,5.542969,0,8.700195,2.30957,11.009766,5.620605h.231445V.204102h12.549805v55.051758h-12.010742v-5.3125h-.154297c-2.386719,4.081055-6.467773,6.544922-11.625977,6.544922-10.086914,0-17.248047-7.776367-17.248047-20.943359Zm28.796875,0c0-6.621094-2.694336-11.39502-8.161133-11.39502-5.004883,0-7.930664,4.619629-7.930664,11.241699,0,6.852539,2.925781,11.164062,7.776367,11.164062,5.235352,0,8.31543-4.541992,8.31543-11.010742Z"/><path class="e" d="m159.667873,35.46875c0-11.780762,8.238281-20.789062,20.249023-20.789062,5.621094,0,10.086914,1.847656,13.474609,4.927734,4.697266,4.311523,7.006836,11.164062,6.929688,19.171875h-28.334961c.770508,5.3125,3.696289,8.623047,8.855469,8.623047,3.310547,0,5.46582-1.462891,6.543945-3.925781h12.242188c-.84668,3.541016-3.15625,6.929688-6.621094,9.316406-3.310547,2.30957-7.314453,3.618164-12.319336,3.618164-13.012695,0-21.019531-9.008789-21.019531-20.942383Zm27.949219-4.158203c-.461914-4.696777-3.387695-7.699707-7.46875-7.699707-4.773438,0-7.237305,3.00293-8.084961,7.699707h15.553711Z"/><path class="e" d="m202.094631,15.834473h12.011719v5.620605h.230469c2.463867-4.080566,6.236328-6.775391,11.93457-6.775391,5.158203,0,9.084961,2.694824,11.086914,6.929688h.154297c3.080078-4.773926,7.314453-6.929688,12.396484-6.929688,8.931641,0,13.397461,6.08252,13.397461,14.937012v25.63916h-12.550781v-23.40625c0-4.234863-1.770508-6.69873-5.543945-6.69873-4.00293,0-6.236328,3.311035-6.236328,8.007324v22.097656h-12.549805v-23.40625c0-4.234863-1.771484-6.69873-5.543945-6.69873-3.926758,0-6.237305,3.311035-6.237305,8.007324v22.097656h-12.549805V15.834473Z"/><path class="e" d="m267.081935,58.490234h4.3125c3.695312,0,5.158203-1.462891,5.158203-4.158203,0-1.693359-.769531-4.003906-2.386719-8.161133l-11.626953-30.336426h13.244141l5.3125,16.784668c1.231445,3.849609,2.463867,9.085938,2.463867,9.085938h.15332s1.078125-5.236328,2.310547-9.085938l5.158203-16.784668h12.550781l-13.62793,39.960449c-3.157227,9.240234-6.929688,12.473633-14.860352,12.473633h-8.162109v-9.77832Z"/><polygon class="d" points="18.423132 31.660671 11.509157 14.960445 17.606949 0 41.567645 55.360813 28.399131 55.360813 23.243004 42.961647 0 42.961647 4.403307 31.660671 18.423132 31.660671"/></g></svg>
